# xmcd CD database file
#
# Track frame offsets:
#	150
#	14854
#	30047
#	50443
#	66151
#	79912
#	97305
#	110900
#	124861
#	139585
#	155213
#
# Disc length: 2401 seconds
#
# Revision: 0
# Processed by: cddbd v1.5.2PL0 Copyright (c) Steve Scherf et al.
# Submitted via: CDex 1.76
#
DISCID=9e095f0b
DTITLE=Small Town Pistols - Pistology
DYEAR=2015
DGENRE=Country
TTITLE0=Jester In A Crown
TTITLE1=My Family
TTITLE2=Ghost
TTITLE3=Can't Wait To Meet You
TTITLE4=Be Your Own Song
TTITLE5=Slow Down
TTITLE6=Weather The Storm
TTITLE7=I Only Smoke When I Drink
TTITLE8=Glass Heart
TTITLE9=I'll Remember
TTITLE10=The Other Man (feat. Brett Kissel)
EXTD=YEAR: 2015
EXTT0=
EXTT1=
EXTT2=
EXTT3=
EXTT4=
EXTT5=
EXTT6=
EXTT7=
EXTT8=
EXTT9=
EXTT10=
PLAYORDER=
